<svg width="249" height="49" viewBox="0 0 249 49" fill="none" xmlns="http://www.w3.org/2000/svg">
<path d="M23.6158 16.4183C23.6255 16.7235 22.9271 22.9486 20.3239 25.6015C23.4904 12.4632 13.4184 5.58287 13.4184 5.58287C13.4184 5.58287 12.204 15.2869 9.36718 19.0691C9.05699 14.9157 6.91836 12.4688 6.91836 12.4688C5.63648 20.0447 0.653189 26.7615 0.807657 31.632C1.07474 40.0534 7.28316 46.5897 14.7087 46.2671C22.1343 45.9446 27.9116 38.8877 27.6445 30.4663C27.4515 24.3791 25.7899 19.9828 23.6158 16.4183Z" fill="#4973FF"/>
<path d="M18.649 34.7042C18.7393 37.5511 16.8391 39.8722 14.3288 39.9813C11.8186 40.0903 9.77654 37.9405 9.68625 35.0935C9.59596 32.2466 13.7647 22.1929 13.7647 22.1929C13.7647 22.1929 18.5588 31.8573 18.649 34.7042Z" fill="#B3E5FC"/>
<path d="M43.4 24H38.72V9.44H33.26V5.8H48.86V9.44H43.4V24ZM65.113 24H50.683V5.8H65.113V9.44H55.363V12.95H63.033V16.59H55.363V20.36H65.113V24ZM67.187 5.8H78.107C79.927 5.8 81.2443 6.216 82.059 7.048C82.891 7.86267 83.307 9.18 83.307 11V13.6C83.307 15.42 82.891 16.746 82.059 17.578C81.2443 18.3927 79.927 18.8 78.107 18.8H71.867V24H67.187V5.8ZM78.627 11C78.627 9.96 78.107 9.44 77.067 9.44H71.867V15.16H77.067C78.107 15.16 78.627 14.64 78.627 13.6V11ZM101.246 13.86L97.6059 20.36H93.9659L90.3259 13.86V24H85.6459V5.8H90.5859L95.7859 15.42L100.986 5.8H105.926V24H101.246V13.86ZM120.756 10.74C120.756 9.7 120.236 9.18 119.196 9.18H114.776C113.736 9.18 113.216 9.7 113.216 10.74V19.06C113.216 20.1 113.736 20.62 114.776 20.62H119.196C120.236 20.62 120.756 20.1 120.756 19.06V10.74ZM125.436 19.06C125.436 20.88 125.02 22.206 124.188 23.038C123.373 23.8527 122.056 24.26 120.236 24.26H113.736C111.916 24.26 110.59 23.8527 109.758 23.038C108.943 22.206 108.536 20.88 108.536 19.06V10.74C108.536 8.92 108.943 7.60267 109.758 6.788C110.59 5.956 111.916 5.54 113.736 5.54H120.236C122.056 5.54 123.373 5.956 124.188 6.788C125.02 7.60267 125.436 8.92 125.436 10.74V19.06ZM127.268 16.72V13.08H137.928V16.72H127.268ZM153.521 5.54C153.955 5.54 154.735 5.62667 155.861 5.8V9.31H154.821C154.561 9.31 154.327 9.39667 154.119 9.57C153.911 9.726 153.755 9.89933 153.651 10.09L151.181 14.77L156.251 24H151.311L147.281 16.59H144.941V24H140.261V5.8H144.941V12.95H147.281L149.881 8.01C150.263 7.282 150.731 6.69267 151.285 6.242C151.857 5.774 152.603 5.54 153.521 5.54ZM157.806 5.8H168.726C170.546 5.8 171.863 6.216 172.678 7.048C173.51 7.86267 173.926 9.18 173.926 11V13.6C173.926 15.42 173.51 16.746 172.678 17.578C171.863 18.3927 170.546 18.8 168.726 18.8H162.486V24H157.806V5.8ZM169.246 11C169.246 9.96 168.726 9.44 167.686 9.44H162.486V15.16H167.686C168.726 15.16 169.246 14.64 169.246 13.6V11ZM180.945 12.04H186.925C188.745 12.04 190.062 12.456 190.877 13.288C191.709 14.1027 192.125 15.42 192.125 17.24V18.8C192.125 20.62 191.709 21.946 190.877 22.778C190.062 23.5927 188.745 24 186.925 24H176.265V5.8H180.945V12.04ZM198.885 24H194.205V5.8H198.885V24ZM187.445 17.24C187.445 16.2 186.925 15.68 185.885 15.68H180.945V20.36H185.885C186.925 20.36 187.445 19.84 187.445 18.8V17.24ZM217.611 13.86L213.971 20.36H210.331L206.691 13.86V24H202.011V5.8H206.951L212.151 15.42L217.351 5.8H222.291V24H217.611V13.86Z" fill="#4973FF"/>
<path d="M36.16 35.84C37.4613 35.92 38.3413 35.96 38.8 35.96C38.9227 35.96 39.0187 35.9253 39.088 35.856C39.1627 35.7813 39.2 35.6827 39.2 35.56V34.8H37.072V33.68H39.2V33C39.2 32.68 39.04 32.52 38.72 32.52H36.24V31.4H39.04C39.6 31.4 40.0053 31.528 40.256 31.784C40.512 32.0347 40.64 32.44 40.64 33V35.56C40.64 36.0827 40.5173 36.4667 40.272 36.712C40.0267 36.9573 39.6427 37.08 39.12 37.08C38.32 37.08 37.3333 37.0267 36.16 36.92V35.84ZM43.3609 35.4H42.7609V37H41.3609V32.76H42.7609V34.32H43.4009L43.8409 33.44C44.0009 33.0987 44.2516 32.8667 44.5929 32.744C44.7156 32.7013 44.8329 32.68 44.9449 32.68C45.1263 32.68 45.2916 32.6933 45.4409 32.72L45.6409 32.76V33.84H45.3609C45.1796 33.84 45.0463 33.92 44.9609 34.08L44.5609 34.88L45.7609 37H44.2409L43.3609 35.4ZM49.9178 36.92C48.9205 37.0267 48.0405 37.08 47.2778 37.08C46.9151 37.08 46.6245 36.9707 46.4058 36.752C46.1871 36.5333 46.0778 36.2427 46.0778 35.88V34.04C46.0778 33.64 46.1898 33.328 46.4138 33.104C46.6431 32.8747 46.9578 32.76 47.3578 32.76H49.9178V33.84H47.7978C47.5845 33.84 47.4778 33.9467 47.4778 34.16V35.72C47.4778 35.8 47.5045 35.8667 47.5578 35.92C47.6111 35.9733 47.6778 36 47.7578 36C48.2378 36 48.9578 35.96 49.9178 35.88V36.92ZM54.7963 32.76V37H53.3963V33.84H51.9563V37H50.5563V32.76H54.7963ZM56.0753 37.08C55.846 37.08 55.5793 37.0533 55.2753 37V35.96H55.5953C55.798 35.96 55.9046 35.8533 55.9153 35.64L56.0753 32.76H59.9153V37H58.5153V33.84H57.3953L57.2753 35.88C57.254 36.2427 57.134 36.5333 56.9153 36.752C56.6966 36.9707 56.4166 37.08 56.0753 37.08ZM61.8325 38.44C61.5498 38.44 61.2032 38.4133 60.7925 38.36V37.32H61.5125C61.7152 37.32 61.8458 37.264 61.9045 37.152C61.9685 37.04 61.9578 36.8827 61.8725 36.68L60.2325 32.76H61.7125L62.7125 35.48L63.5525 32.76H65.0325L63.4325 37.16C63.2778 37.5813 63.0778 37.8987 62.8325 38.112C62.5872 38.3307 62.2538 38.44 61.8325 38.44ZM66.7988 35.96C67.0814 35.96 67.4014 35.9067 67.7588 35.8V35.32H66.5988C66.5188 35.32 66.4521 35.3467 66.3988 35.4C66.3454 35.4533 66.3188 35.52 66.3188 35.6V35.68C66.3188 35.76 66.3454 35.8267 66.3988 35.88C66.4521 35.9333 66.5188 35.96 66.5988 35.96H66.7988ZM65.3188 32.84C66.2948 32.7333 67.1748 32.68 67.9588 32.68C68.3214 32.68 68.6121 32.7893 68.8307 33.008C69.0494 33.2267 69.1588 33.5173 69.1588 33.88V37H67.9188L67.8388 36.6C67.5881 36.7653 67.3294 36.888 67.0628 36.968C66.8014 37.0427 66.5801 37.08 66.3988 37.08H66.1188C65.7561 37.08 65.4654 36.9707 65.2467 36.752C65.0281 36.5333 64.9188 36.2427 64.9188 35.88V35.52C64.9188 35.1573 65.0281 34.8667 65.2467 34.648C65.4654 34.4293 65.7561 34.32 66.1188 34.32H67.7588V34C67.7588 33.92 67.7321 33.8533 67.6788 33.8C67.6254 33.7467 67.5588 33.72 67.4788 33.72C67.1321 33.72 66.7481 33.736 66.3268 33.768C65.9108 33.8 65.5748 33.824 65.3188 33.84V32.84ZM72.2766 33.84V37H70.8766V33.84H69.5566V32.76H73.5966V33.84H72.2766ZM75.6034 35.96C75.8861 35.96 76.2061 35.9067 76.5634 35.8V35.32H75.4034C75.3234 35.32 75.2568 35.3467 75.2034 35.4C75.1501 35.4533 75.1234 35.52 75.1234 35.6V35.68C75.1234 35.76 75.1501 35.8267 75.2034 35.88C75.2568 35.9333 75.3234 35.96 75.4034 35.96H75.6034ZM74.1234 32.84C75.0994 32.7333 75.9794 32.68 76.7634 32.68C77.1261 32.68 77.4168 32.7893 77.6354 33.008C77.8541 33.2267 77.9634 33.5173 77.9634 33.88V37H76.7234L76.6434 36.6C76.3928 36.7653 76.1341 36.888 75.8674 36.968C75.6061 37.0427 75.3848 37.08 75.2034 37.08H74.9234C74.5608 37.08 74.2701 36.9707 74.0514 36.752C73.8328 36.5333 73.7234 36.2427 73.7234 35.88V35.52C73.7234 35.1573 73.8328 34.8667 74.0514 34.648C74.2701 34.4293 74.5608 34.32 74.9234 34.32H76.5634V34C76.5634 33.92 76.5368 33.8533 76.4834 33.8C76.4301 33.7467 76.3634 33.72 76.2834 33.72C75.9368 33.72 75.5528 33.736 75.1314 33.768C74.7154 33.8 74.3794 33.824 74.1234 33.84V32.84ZM82.1213 37H78.6813V32.76H80.0813V35.92H81.5213V32.76H82.9213V35.92H83.5213V37.96H82.2013L82.1213 37ZM86.8397 32.76H88.3197V37H86.9197V34.68L85.5597 37H84.0797V32.76H85.4797V35.08L86.8397 32.76ZM93.2788 32.76V37H91.8788V35.68H91.1988L90.4388 37H88.9588L89.7588 35.6C89.5348 35.52 89.3588 35.384 89.2308 35.192C89.1028 35 89.0388 34.7627 89.0388 34.48V33.96C89.0388 33.5973 89.1481 33.3067 89.3668 33.088C89.5854 32.8693 89.8761 32.76 90.2388 32.76H93.2788ZM90.7188 33.76C90.6388 33.76 90.5721 33.7867 90.5188 33.84C90.4654 33.8933 90.4388 33.96 90.4388 34.04V34.4C90.4388 34.48 90.4654 34.5467 90.5188 34.6C90.5721 34.6533 90.6388 34.68 90.7188 34.68H91.8788V33.76H90.7188ZM99.2381 32.76H100.718V37H99.3181V34.68L97.9581 37H96.4781V32.76H97.8781V35.08L99.2381 32.76ZM106.316 33.84V37H104.916V33.84H103.596V32.76H107.636V33.84H106.316ZM109.759 33.68C109.545 33.68 109.439 33.7867 109.439 34V34.44H110.799V34C110.799 33.7867 110.692 33.68 110.479 33.68H109.759ZM112.039 36.92C111.009 37.0267 110.076 37.08 109.239 37.08C108.876 37.08 108.585 36.9707 108.367 36.752C108.148 36.5333 108.039 36.2427 108.039 35.88V33.96C108.039 33.56 108.151 33.248 108.375 33.024C108.604 32.7947 108.919 32.68 109.319 32.68H110.919C111.319 32.68 111.631 32.7947 111.855 33.024C112.084 33.248 112.199 33.56 112.199 33.96V35.44H109.439V35.76C109.439 35.84 109.465 35.9067 109.519 35.96C109.572 36.0133 109.639 36.04 109.719 36.04C110.247 36.04 111.02 36 112.039 35.92V36.92ZM115.478 32.76H117.038L115.678 34.88L117.078 37H115.518L114.718 35.72L113.918 37H112.357L113.758 34.88L112.397 32.76H113.958L114.718 34.04L115.478 32.76ZM120.24 34.32V32.76H121.64V37H120.24V35.4H118.8V37H117.4V32.76H118.8V34.32H120.24ZM125.199 32.76H126.679V37H125.279V34.68L123.919 37H122.439V32.76H123.839V35.08L125.199 32.76ZM129.078 34.72C129.531 34.72 129.905 34.7067 130.198 34.68V32.76H131.598V37H130.198V35.72C129.627 35.7733 129.094 35.8 128.598 35.8C128.235 35.8 127.945 35.6907 127.726 35.472C127.507 35.2533 127.398 34.9627 127.398 34.6V32.76H128.798V34.44C128.798 34.52 128.825 34.5867 128.878 34.64C128.931 34.6933 128.998 34.72 129.078 34.72ZM134.04 33.68C133.827 33.68 133.72 33.7867 133.72 34V34.44H135.08V34C135.08 33.7867 134.973 33.68 134.76 33.68H134.04ZM136.32 36.92C135.291 37.0267 134.357 37.08 133.52 37.08C133.157 37.08 132.867 36.9707 132.648 36.752C132.429 36.5333 132.32 36.2427 132.32 35.88V33.96C132.32 33.56 132.432 33.248 132.656 33.024C132.885 32.7947 133.2 32.68 133.6 32.68H135.2C135.6 32.68 135.912 32.7947 136.136 33.024C136.365 33.248 136.48 33.56 136.48 33.96V35.44H133.72V35.76C133.72 35.84 133.747 35.9067 133.8 35.96C133.853 36.0133 133.92 36.04 134 36.04C134.528 36.04 135.301 36 136.32 35.92V36.92ZM140.957 36.92C139.96 37.0267 139.08 37.08 138.317 37.08C137.954 37.08 137.664 36.9707 137.445 36.752C137.226 36.5333 137.117 36.2427 137.117 35.88V34.04C137.117 33.64 137.229 33.328 137.453 33.104C137.682 32.8747 137.997 32.76 138.397 32.76H140.957V33.84H138.837C138.624 33.84 138.517 33.9467 138.517 34.16V35.72C138.517 35.8 138.544 35.8667 138.597 35.92C138.65 35.9733 138.717 36 138.797 36C139.277 36 139.997 35.96 140.957 35.88V36.92ZM143.595 35.4H142.995V37H141.595V32.76H142.995V34.32H143.635L144.075 33.44C144.235 33.0987 144.486 32.8667 144.827 32.744C144.95 32.7013 145.067 32.68 145.179 32.68C145.361 32.68 145.526 32.6933 145.675 32.72L145.875 32.76V33.84H145.595C145.414 33.84 145.281 33.92 145.195 34.08L144.795 34.88L145.995 37H144.475L143.595 35.4ZM150.712 35.8C150.712 36.2 150.598 36.5147 150.368 36.744C150.144 36.968 149.832 37.08 149.432 37.08H147.592C147.192 37.08 146.878 36.968 146.648 36.744C146.424 36.5147 146.312 36.2 146.312 35.8V33.96C146.312 33.56 146.424 33.248 146.648 33.024C146.878 32.7947 147.192 32.68 147.592 32.68H149.432C149.832 32.68 150.144 32.7947 150.368 33.024C150.598 33.248 150.712 33.56 150.712 33.96V35.8ZM149.312 34.08C149.312 33.8667 149.206 33.76 148.992 33.76H148.032C147.819 33.76 147.712 33.8667 147.712 34.08V35.68C147.712 35.8933 147.819 36 148.032 36H148.992C149.206 36 149.312 35.8933 149.312 35.68V34.08ZM153.071 33.68C152.858 33.68 152.751 33.7867 152.751 34V34.44H154.111V34C154.111 33.7867 154.005 33.68 153.791 33.68H153.071ZM155.351 36.92C154.322 37.0267 153.389 37.08 152.551 37.08C152.189 37.08 151.898 36.9707 151.679 36.752C151.461 36.5333 151.351 36.2427 151.351 35.88V33.96C151.351 33.56 151.463 33.248 151.687 33.024C151.917 32.7947 152.231 32.68 152.631 32.68H154.231C154.631 32.68 154.943 32.7947 155.167 33.024C155.397 33.248 155.511 33.56 155.511 33.96V35.44H152.751V35.76C152.751 35.84 152.778 35.9067 152.831 35.96C152.885 36.0133 152.951 36.04 153.031 36.04C153.559 36.04 154.333 36 155.351 35.92V36.92ZM162.947 35.8C162.947 36.2 162.832 36.5147 162.603 36.744C162.379 36.968 162.067 37.08 161.667 37.08H159.827C159.427 37.08 159.112 36.968 158.883 36.744C158.659 36.5147 158.547 36.2 158.547 35.8V33.96C158.547 33.56 158.659 33.248 158.883 33.024C159.112 32.7947 159.427 32.68 159.827 32.68H161.667C162.067 32.68 162.379 32.7947 162.603 33.024C162.832 33.248 162.947 33.56 162.947 33.96V35.8ZM161.547 34.08C161.547 33.8667 161.44 33.76 161.227 33.76H160.267C160.053 33.76 159.947 33.8667 159.947 34.08V35.68C159.947 35.8933 160.053 36 160.267 36H161.227C161.44 36 161.547 35.8933 161.547 35.68V34.08ZM164.986 33.48C165.503 33.3733 165.956 33.32 166.346 33.32H166.706C167.068 33.32 167.359 33.4293 167.578 33.648C167.796 33.8667 167.906 34.1573 167.906 34.52V35.8C167.906 36.2 167.791 36.5147 167.562 36.744C167.338 36.968 167.026 37.08 166.626 37.08H164.866C164.466 37.08 164.151 36.968 163.922 36.744C163.698 36.5147 163.586 36.2 163.586 35.8V32.96C163.586 32.576 163.714 32.2533 163.97 31.992C164.231 31.7307 164.583 31.5733 165.026 31.52L167.746 31.2L167.866 32.32L165.386 32.6C165.119 32.632 164.986 32.7653 164.986 33V33.48ZM166.186 36C166.399 36 166.506 35.8933 166.506 35.68V34.68C166.506 34.6 166.479 34.5333 166.426 34.48C166.372 34.4267 166.306 34.4 166.226 34.4H165.946C165.738 34.4 165.551 34.4107 165.386 34.432C165.22 34.4533 165.087 34.4693 164.986 34.48V35.68C164.986 35.8933 165.092 36 165.306 36H166.186ZM172.308 36.92C171.311 37.0267 170.431 37.08 169.668 37.08C169.306 37.08 169.015 36.9707 168.796 36.752C168.578 36.5333 168.468 36.2427 168.468 35.88V34.04C168.468 33.64 168.58 33.328 168.804 33.104C169.034 32.8747 169.348 32.76 169.748 32.76H172.308V33.84H170.188C169.975 33.84 169.868 33.9467 169.868 34.16V35.72C169.868 35.8 169.895 35.8667 169.948 35.92C170.002 35.9733 170.068 36 170.148 36C170.628 36 171.348 35.96 172.308 35.88V36.92ZM173.427 37.08C173.198 37.08 172.931 37.0533 172.627 37V35.96H172.947C173.15 35.96 173.256 35.8533 173.267 35.64L173.427 32.76H177.267V37H175.867V33.84H174.747L174.627 35.88C174.606 36.2427 174.486 36.5333 174.267 36.752C174.048 36.9707 173.768 37.08 173.427 37.08ZM179.184 38.44C178.901 38.44 178.555 38.4133 178.144 38.36V37.32H178.864C179.067 37.32 179.197 37.264 179.256 37.152C179.32 37.04 179.309 36.8827 179.224 36.68L177.584 32.76H179.064L180.064 35.48L180.904 32.76H182.384L180.784 37.16C180.629 37.5813 180.429 37.8987 180.184 38.112C179.939 38.3307 179.605 38.44 179.184 38.44ZM183.747 37H182.227L183.427 34.88L183.027 34.08C182.941 33.92 182.808 33.84 182.627 33.84H182.347V32.76L182.547 32.72C182.691 32.6933 182.837 32.68 182.987 32.68C183.136 32.68 183.269 32.7013 183.387 32.744C183.509 32.7867 183.619 32.8427 183.715 32.912C183.901 33.0453 184.045 33.2213 184.147 33.44L184.587 34.32H185.027V32.76H186.427V34.32H186.867L187.307 33.44C187.467 33.0987 187.72 32.8667 188.067 32.744C188.184 32.7013 188.301 32.68 188.419 32.68C188.6 32.68 188.763 32.6933 188.907 32.72L189.107 32.76V33.84H188.827C188.645 33.84 188.512 33.92 188.427 34.08L188.027 34.88L189.227 37H187.707L186.827 35.4H186.427V37H185.027V35.4H184.627L183.747 37ZM192.387 32.76H193.867V37H192.467V34.68L191.107 37H189.627V32.76H191.027V35.08L192.387 32.76ZM197.706 37H194.666V32.76H197.466C197.823 32.76 198.111 32.8667 198.33 33.08C198.554 33.288 198.666 33.5227 198.666 33.784C198.666 34.0453 198.61 34.2587 198.498 34.424C198.386 34.5893 198.228 34.7013 198.026 34.76C198.266 34.8027 198.471 34.92 198.642 35.112C198.818 35.304 198.906 35.56 198.906 35.88C198.906 36.2 198.794 36.4667 198.57 36.68C198.351 36.8933 198.063 37 197.706 37ZM197.506 35.64C197.506 35.56 197.479 35.4933 197.426 35.44C197.372 35.3867 197.306 35.36 197.226 35.36H196.066V36.04H197.226C197.306 36.04 197.372 36.0133 197.426 35.96C197.479 35.9067 197.506 35.84 197.506 35.76V35.64ZM197.266 34C197.266 33.92 197.239 33.8533 197.186 33.8C197.132 33.7467 197.066 33.72 196.986 33.72H196.066V34.44H196.986C197.066 34.44 197.132 34.4133 197.186 34.36C197.239 34.3067 197.266 34.24 197.266 34.16V34ZM201.143 35.96C201.425 35.96 201.745 35.9067 202.103 35.8V35.32H200.943C200.863 35.32 200.796 35.3467 200.743 35.4C200.689 35.4533 200.663 35.52 200.663 35.6V35.68C200.663 35.76 200.689 35.8267 200.743 35.88C200.796 35.9333 200.863 35.96 200.943 35.96H201.143ZM199.663 32.84C200.639 32.7333 201.519 32.68 202.303 32.68C202.665 32.68 202.956 32.7893 203.174 33.008C203.393 33.2267 203.503 33.5173 203.503 33.88V37H202.263L202.183 36.6C201.932 36.7653 201.673 36.888 201.407 36.968C201.145 37.0427 200.924 37.08 200.743 37.08H200.463C200.1 37.08 199.809 36.9707 199.59 36.752C199.372 36.5333 199.263 36.2427 199.263 35.88V35.52C199.263 35.1573 199.372 34.8667 199.59 34.648C199.809 34.4293 200.1 34.32 200.463 34.32H202.103V34C202.103 33.92 202.076 33.8533 202.023 33.8C201.969 33.7467 201.903 33.72 201.823 33.72C201.476 33.72 201.092 33.736 200.671 33.768C200.255 33.8 199.919 33.824 199.663 33.84V32.84ZM207.06 34.32V32.76H208.46V37H207.06V35.4H205.62V37H204.22V32.76H205.62V34.32H207.06ZM212.019 32.76H213.499V37H212.099V34.68L210.739 37H209.259V32.76H210.659V35.08L212.019 32.76ZM215.938 33.68C215.725 33.68 215.618 33.7867 215.618 34V34.44H216.978V34C216.978 33.7867 216.872 33.68 216.658 33.68H215.938ZM218.218 36.92C217.189 37.0267 216.256 37.08 215.418 37.08C215.056 37.08 214.765 36.9707 214.546 36.752C214.328 36.5333 214.218 36.2427 214.218 35.88V33.96C214.218 33.56 214.33 33.248 214.554 33.024C214.784 32.7947 215.098 32.68 215.498 32.68H217.098C217.498 32.68 217.81 32.7947 218.034 33.024C218.264 33.248 218.378 33.56 218.378 33.96V35.44H215.618V35.76C215.618 35.84 215.645 35.9067 215.698 35.96C215.752 36.0133 215.818 36.04 215.898 36.04C216.426 36.04 217.2 36 218.218 35.92V36.92ZM38.4 45.4H37.8V47H36.4V42.76H37.8V44.32H38.44L38.88 43.44C39.04 43.0987 39.2907 42.8667 39.632 42.744C39.7547 42.7013 39.872 42.68 39.984 42.68C40.1653 42.68 40.3307 42.6933 40.48 42.72L40.68 42.76V43.84H40.4C40.2187 43.84 40.0853 43.92 40 44.08L39.6 44.88L40.8 47H39.28L38.4 45.4ZM45.5169 45.8C45.5169 46.2 45.4022 46.5147 45.1729 46.744C44.9489 46.968 44.6369 47.08 44.2369 47.08H42.3969C41.9969 47.08 41.6822 46.968 41.4529 46.744C41.2289 46.5147 41.1169 46.2 41.1169 45.8V43.96C41.1169 43.56 41.2289 43.248 41.4529 43.024C41.6822 42.7947 41.9969 42.68 42.3969 42.68H44.2369C44.6369 42.68 44.9489 42.7947 45.1729 43.024C45.4022 43.248 45.5169 43.56 45.5169 43.96V45.8ZM44.1169 44.08C44.1169 43.8667 44.0102 43.76 43.7969 43.76H42.8369C42.6235 43.76 42.5169 43.8667 42.5169 44.08V45.68C42.5169 45.8933 42.6235 46 42.8369 46H43.7969C44.0102 46 44.1169 45.8933 44.1169 45.68V44.08ZM48.6359 43.84V47H47.2359V43.84H45.9159V42.76H49.9559V43.84H48.6359ZM50.5988 47.08C50.3694 47.08 50.1028 47.0533 49.7988 47V45.96H50.1188C50.3214 45.96 50.4281 45.8533 50.4388 45.64L50.5988 42.76H54.4388V47H53.0388V43.84H51.9188L51.7988 45.88C51.7774 46.2427 51.6574 46.5333 51.4388 46.752C51.2201 46.9707 50.9401 47.08 50.5988 47.08ZM59.5559 45.8C59.5559 46.2 59.4413 46.5147 59.2119 46.744C58.9879 46.968 58.6759 47.08 58.2759 47.08H56.4359C56.0359 47.08 55.7213 46.968 55.4919 46.744C55.2679 46.5147 55.1559 46.2 55.1559 45.8V43.96C55.1559 43.56 55.2679 43.248 55.4919 43.024C55.7213 42.7947 56.0359 42.68 56.4359 42.68H58.2759C58.6759 42.68 58.9879 42.7947 59.2119 43.024C59.4413 43.248 59.5559 43.56 59.5559 43.96V45.8ZM58.1559 44.08C58.1559 43.8667 58.0493 43.76 57.8359 43.76H56.8759C56.6626 43.76 56.5559 43.8667 56.5559 44.08V45.68C56.5559 45.8933 56.6626 46 56.8759 46H57.8359C58.0493 46 58.1559 45.8933 58.1559 45.68V44.08ZM63.315 47H60.275V42.76H63.075C63.4323 42.76 63.7203 42.8667 63.939 43.08C64.163 43.288 64.275 43.5227 64.275 43.784C64.275 44.0453 64.219 44.2587 64.107 44.424C63.995 44.5893 63.8377 44.7013 63.635 44.76C63.875 44.8027 64.0803 44.92 64.251 45.112C64.427 45.304 64.515 45.56 64.515 45.88C64.515 46.2 64.403 46.4667 64.179 46.68C63.9603 46.8933 63.6723 47 63.315 47ZM63.115 45.64C63.115 45.56 63.0883 45.4933 63.035 45.44C62.9817 45.3867 62.915 45.36 62.835 45.36H61.675V46.04H62.835C62.915 46.04 62.9817 46.0133 63.035 45.96C63.0883 45.9067 63.115 45.84 63.115 45.76V45.64ZM62.875 44C62.875 43.92 62.8483 43.8533 62.795 43.8C62.7417 43.7467 62.675 43.72 62.595 43.72H61.675V44.44H62.595C62.675 44.44 62.7417 44.4133 62.795 44.36C62.8483 44.3067 62.875 44.24 62.875 44.16V44ZM70.2303 42.76H71.7103V47H70.3103V44.68L68.9503 47H67.4703V42.76H68.8703V45.08L70.2303 42.76ZM76.9078 45.4H76.3078V47H74.9078V42.76H76.3078V44.32H76.9478L77.3878 43.44C77.5478 43.0987 77.7985 42.8667 78.1398 42.744C78.2625 42.7013 78.3798 42.68 78.4918 42.68C78.6731 42.68 78.8385 42.6933 78.9878 42.72L79.1878 42.76V43.84H78.9078C78.7265 43.84 78.5931 43.92 78.5078 44.08L78.1078 44.88L79.3078 47H77.7878L76.9078 45.4ZM84.0247 45.8C84.0247 46.2 83.91 46.5147 83.6807 46.744C83.4567 46.968 83.1447 47.08 82.7447 47.08H80.9047C80.5047 47.08 80.19 46.968 79.9607 46.744C79.7367 46.5147 79.6247 46.2 79.6247 45.8V43.96C79.6247 43.56 79.7367 43.248 79.9607 43.024C80.19 42.7947 80.5047 42.68 80.9047 42.68H82.7447C83.1447 42.68 83.4567 42.7947 83.6807 43.024C83.91 43.248 84.0247 43.56 84.0247 43.96V45.8ZM82.6247 44.08C82.6247 43.8667 82.518 43.76 82.3047 43.76H81.3447C81.1314 43.76 81.0247 43.8667 81.0247 44.08V45.68C81.0247 45.8933 81.1314 46 81.3447 46H82.3047C82.518 46 82.6247 45.8933 82.6247 45.68V44.08ZM87.1438 43.84V47H85.7438V43.84H84.4238V42.76H88.4638V43.84H87.1438ZM90.5869 43.68C90.3735 43.68 90.2669 43.7867 90.2669 44V44.44H91.6269V44C91.6269 43.7867 91.5202 43.68 91.3069 43.68H90.5869ZM92.8669 46.92C91.8375 47.0267 90.9042 47.08 90.0669 47.08C89.7042 47.08 89.4135 46.9707 89.1949 46.752C88.9762 46.5333 88.8669 46.2427 88.8669 45.88V43.96C88.8669 43.56 88.9789 43.248 89.2029 43.024C89.4322 42.7947 89.7469 42.68 90.1469 42.68H91.7469C92.1469 42.68 92.4589 42.7947 92.6829 43.024C92.9122 43.248 93.0269 43.56 93.0269 43.96V45.44H90.2669V45.76C90.2669 45.84 90.2935 45.9067 90.3469 45.96C90.4002 46.0133 90.4669 46.04 90.5469 46.04C91.0749 46.04 91.8482 46 92.8669 45.92V46.92ZM94.2238 47.08C93.9944 47.08 93.7278 47.0533 93.4238 47V45.96H93.7438C93.9464 45.96 94.0531 45.8533 94.0638 45.64L94.2238 42.76H98.0638V47H96.6638V43.84H95.5438L95.4238 45.88C95.4024 46.2427 95.2824 46.5333 95.0638 46.752C94.8451 46.9707 94.5651 47.08 94.2238 47.08ZM98.8609 47V42.76H100.261V44.08H101.901C102.264 44.08 102.554 44.1893 102.773 44.408C102.992 44.6267 103.101 44.9173 103.101 45.28V45.8C103.101 46.1627 102.992 46.4533 102.773 46.672C102.554 46.8907 102.264 47 101.901 47H98.8609ZM101.421 46C101.501 46 101.568 45.9733 101.621 45.92C101.674 45.8667 101.701 45.8 101.701 45.72V45.36C101.701 45.28 101.674 45.2133 101.621 45.16C101.568 45.1067 101.501 45.08 101.421 45.08H100.261V46H101.421ZM106.498 44.32V42.76H107.898V47H106.498V45.4H105.058V47H103.658V42.76H105.058V44.32H106.498ZM113.017 45.8C113.017 46.2 112.902 46.5147 112.673 46.744C112.449 46.968 112.137 47.08 111.737 47.08H109.897C109.497 47.08 109.182 46.968 108.953 46.744C108.729 46.5147 108.617 46.2 108.617 45.8V43.96C108.617 43.56 108.729 43.248 108.953 43.024C109.182 42.7947 109.497 42.68 109.897 42.68H111.737C112.137 42.68 112.449 42.7947 112.673 43.024C112.902 43.248 113.017 43.56 113.017 43.96V45.8ZM111.617 44.08C111.617 43.8667 111.51 43.76 111.297 43.76H110.337C110.124 43.76 110.017 43.8667 110.017 44.08V45.68C110.017 45.8933 110.124 46 110.337 46H111.297C111.51 46 111.617 45.8933 111.617 45.68V44.08ZM117.176 42.76V43.84H115.136V47H113.736V42.76H117.176ZM121.978 45.8C121.978 46.2 121.863 46.5147 121.634 46.744C121.41 46.968 121.098 47.08 120.698 47.08H118.858C118.458 47.08 118.143 46.968 117.914 46.744C117.69 46.5147 117.578 46.2 117.578 45.8V43.96C117.578 43.56 117.69 43.248 117.914 43.024C118.143 42.7947 118.458 42.68 118.858 42.68H120.698C121.098 42.68 121.41 42.7947 121.634 43.024C121.863 43.248 121.978 43.56 121.978 43.96V45.8ZM120.578 44.08C120.578 43.8667 120.471 43.76 120.258 43.76H119.298C119.084 43.76 118.978 43.8667 118.978 44.08V45.68C118.978 45.8933 119.084 46 119.298 46H120.258C120.471 46 120.578 45.8933 120.578 45.68V44.08ZM129.415 45.8C129.415 46.2 129.301 46.5147 129.071 46.744C128.847 46.968 128.535 47.08 128.135 47.08H126.295C125.895 47.08 125.581 46.968 125.351 46.744C125.127 46.5147 125.015 46.2 125.015 45.8V43.96C125.015 43.56 125.127 43.248 125.351 43.024C125.581 42.7947 125.895 42.68 126.295 42.68H128.135C128.535 42.68 128.847 42.7947 129.071 43.024C129.301 43.248 129.415 43.56 129.415 43.96V45.8ZM128.015 44.08C128.015 43.8667 127.909 43.76 127.695 43.76H126.735C126.522 43.76 126.415 43.8667 126.415 44.08V45.68C126.415 45.8933 126.522 46 126.735 46H127.695C127.909 46 128.015 45.8933 128.015 45.68V44.08ZM131.454 43.48C131.972 43.3733 132.425 43.32 132.814 43.32H133.174C133.537 43.32 133.828 43.4293 134.046 43.648C134.265 43.8667 134.374 44.1573 134.374 44.52V45.8C134.374 46.2 134.26 46.5147 134.03 46.744C133.806 46.968 133.494 47.08 133.094 47.08H131.334C130.934 47.08 130.62 46.968 130.39 46.744C130.166 46.5147 130.054 46.2 130.054 45.8V42.96C130.054 42.576 130.182 42.2533 130.438 41.992C130.7 41.7307 131.052 41.5733 131.494 41.52L134.214 41.2L134.334 42.32L131.854 42.6C131.588 42.632 131.454 42.7653 131.454 43V43.48ZM132.654 46C132.868 46 132.974 45.8933 132.974 45.68V44.68C132.974 44.6 132.948 44.5333 132.894 44.48C132.841 44.4267 132.774 44.4 132.694 44.4H132.414C132.206 44.4 132.02 44.4107 131.854 44.432C131.689 44.4533 131.556 44.4693 131.454 44.48V45.68C131.454 45.8933 131.561 46 131.774 46H132.654ZM139.337 45.8C139.337 46.2 139.223 46.5147 138.993 46.744C138.769 46.968 138.457 47.08 138.057 47.08H136.217C135.817 47.08 135.503 46.968 135.273 46.744C135.049 46.5147 134.937 46.2 134.937 45.8V43.96C134.937 43.56 135.049 43.248 135.273 43.024C135.503 42.7947 135.817 42.68 136.217 42.68H138.057C138.457 42.68 138.769 42.7947 138.993 43.024C139.223 43.248 139.337 43.56 139.337 43.96V45.8ZM137.937 44.08C137.937 43.8667 137.831 43.76 137.617 43.76H136.657C136.444 43.76 136.337 43.8667 136.337 44.08V45.68C136.337 45.8933 136.444 46 136.657 46H137.617C137.831 46 137.937 45.8933 137.937 45.68V44.08ZM142.416 43.84C142.134 43.84 141.814 43.8933 141.456 44V45.92H142.656C142.87 45.92 142.976 45.8133 142.976 45.6V44.12C142.976 44.04 142.95 43.9733 142.896 43.92C142.843 43.8667 142.776 43.84 142.696 43.84H142.416ZM141.456 47V48.36H140.056V42.76H141.296L141.376 43.16C141.627 42.9947 141.883 42.8747 142.144 42.8C142.411 42.72 142.635 42.68 142.816 42.68H143.176C143.539 42.68 143.83 42.7893 144.048 43.008C144.267 43.2267 144.376 43.5173 144.376 43.88V45.72C144.376 46.12 144.262 46.4347 144.032 46.664C143.808 46.888 143.496 47 143.096 47H141.456ZM146.137 48.44C145.855 48.44 145.508 48.4133 145.097 48.36V47.32H145.817C146.02 47.32 146.151 47.264 146.209 47.152C146.273 47.04 146.263 46.8827 146.177 46.68L144.537 42.76H146.017L147.017 45.48L147.857 42.76H149.337L147.737 47.16C147.583 47.5813 147.383 47.8987 147.137 48.112C146.892 48.3307 146.559 48.44 146.137 48.44ZM151.303 45C151.277 45.3733 151.17 45.68 150.983 45.92H152.383V43.84H151.383L151.303 45ZM153.783 42.76V45.92H154.383V47.96H153.055L152.975 47H150.511L150.431 47.96H149.103V45.92H149.623C149.837 45.6693 149.957 45.3893 149.983 45.08L150.143 42.76H153.783ZM159.267 45.8C159.267 46.2 159.152 46.5147 158.923 46.744C158.699 46.968 158.387 47.08 157.987 47.08H156.147C155.747 47.08 155.432 46.968 155.203 46.744C154.979 46.5147 154.867 46.2 154.867 45.8V43.96C154.867 43.56 154.979 43.248 155.203 43.024C155.432 42.7947 155.747 42.68 156.147 42.68H157.987C158.387 42.68 158.699 42.7947 158.923 43.024C159.152 43.248 159.267 43.56 159.267 43.96V45.8ZM157.867 44.08C157.867 43.8667 157.76 43.76 157.547 43.76H156.587C156.374 43.76 156.267 43.8667 156.267 44.08V45.68C156.267 45.8933 156.374 46 156.587 46H157.547C157.76 46 157.867 45.8933 157.867 45.68V44.08ZM163.026 47H159.986V42.76H162.786C163.143 42.76 163.431 42.8667 163.65 43.08C163.874 43.288 163.986 43.5227 163.986 43.784C163.986 44.0453 163.93 44.2587 163.818 44.424C163.706 44.5893 163.549 44.7013 163.346 44.76C163.586 44.8027 163.791 44.92 163.962 45.112C164.138 45.304 164.226 45.56 164.226 45.88C164.226 46.2 164.114 46.4667 163.89 46.68C163.671 46.8933 163.383 47 163.026 47ZM162.826 45.64C162.826 45.56 162.799 45.4933 162.746 45.44C162.693 45.3867 162.626 45.36 162.546 45.36H161.386V46.04H162.546C162.626 46.04 162.693 46.0133 162.746 45.96C162.799 45.9067 162.826 45.84 162.826 45.76V45.64ZM162.586 44C162.586 43.92 162.559 43.8533 162.506 43.8C162.453 43.7467 162.386 43.72 162.306 43.72H161.386V44.44H162.306C162.386 44.44 162.453 44.4133 162.506 44.36C162.559 44.3067 162.586 44.24 162.586 44.16V44ZM166.463 45.96C166.745 45.96 167.065 45.9067 167.423 45.8V45.32H166.263C166.183 45.32 166.116 45.3467 166.063 45.4C166.009 45.4533 165.983 45.52 165.983 45.6V45.68C165.983 45.76 166.009 45.8267 166.063 45.88C166.116 45.9333 166.183 45.96 166.263 45.96H166.463ZM164.983 42.84C165.959 42.7333 166.839 42.68 167.623 42.68C167.985 42.68 168.276 42.7893 168.495 43.008C168.713 43.2267 168.823 43.5173 168.823 43.88V47H167.583L167.503 46.6C167.252 46.7653 166.993 46.888 166.727 46.968C166.465 47.0427 166.244 47.08 166.063 47.08H165.783C165.42 47.08 165.129 46.9707 164.911 46.752C164.692 46.5333 164.583 46.2427 164.583 45.88V45.52C164.583 45.1573 164.692 44.8667 164.911 44.648C165.129 44.4293 165.42 44.32 165.783 44.32H167.423V44C167.423 43.92 167.396 43.8533 167.343 43.8C167.289 43.7467 167.223 43.72 167.143 43.72C166.796 43.72 166.412 43.736 165.991 43.768C165.575 43.8 165.239 43.824 164.983 43.84V42.84ZM172.381 44.32V42.76H173.781V47H172.381V45.4H170.941V47H169.541V42.76H170.941V44.32H172.381ZM177.34 42.76H178.82V47H177.42V44.68L176.06 47H174.58V42.76H175.98V45.08L177.34 42.76ZM183.779 42.76V47H182.379V45.68H181.699L180.939 47H179.459L180.259 45.6C180.035 45.52 179.859 45.384 179.731 45.192C179.603 45 179.539 44.7627 179.539 44.48V43.96C179.539 43.5973 179.648 43.3067 179.867 43.088C180.085 42.8693 180.376 42.76 180.739 42.76H183.779ZM181.219 43.76C181.139 43.76 181.072 43.7867 181.019 43.84C180.965 43.8933 180.939 43.96 180.939 44.04V44.4C180.939 44.48 180.965 44.5467 181.019 44.6C181.072 44.6533 181.139 44.68 181.219 44.68H182.379V43.76H181.219ZM190.018 47H186.978V42.76H189.778C190.135 42.76 190.423 42.8667 190.642 43.08C190.866 43.288 190.978 43.5227 190.978 43.784C190.978 44.0453 190.922 44.2587 190.81 44.424C190.698 44.5893 190.541 44.7013 190.338 44.76C190.578 44.8027 190.783 44.92 190.954 45.112C191.13 45.304 191.218 45.56 191.218 45.88C191.218 46.2 191.106 46.4667 190.882 46.68C190.663 46.8933 190.375 47 190.018 47ZM189.818 45.64C189.818 45.56 189.791 45.4933 189.738 45.44C189.685 45.3867 189.618 45.36 189.538 45.36H188.378V46.04H189.538C189.618 46.04 189.685 46.0133 189.738 45.96C189.791 45.9067 189.818 45.84 189.818 45.76V45.64ZM189.578 44C189.578 43.92 189.551 43.8533 189.498 43.8C189.445 43.7467 189.378 43.72 189.298 43.72H188.378V44.44H189.298C189.378 44.44 189.445 44.4133 189.498 44.36C189.551 44.3067 189.578 44.24 189.578 44.16V44ZM198.333 41.32C198.467 41.32 198.707 41.3467 199.053 41.4V42.48H198.733C198.653 42.48 198.581 42.5067 198.517 42.56C198.453 42.608 198.405 42.6613 198.373 42.72L197.613 44.16L199.173 47H197.653L196.413 44.72H195.693V47H194.253V41.4H195.693V43.6H196.413L197.213 42.08C197.331 41.856 197.475 41.6747 197.645 41.536C197.821 41.392 198.051 41.32 198.333 41.32ZM201.932 43.84C201.649 43.84 201.329 43.8933 200.972 44V45.92H202.172C202.385 45.92 202.492 45.8133 202.492 45.6V44.12C202.492 44.04 202.465 43.9733 202.412 43.92C202.359 43.8667 202.292 43.84 202.212 43.84H201.932ZM200.972 47V48.36H199.572V42.76H200.812L200.892 43.16C201.143 42.9947 201.399 42.8747 201.66 42.8C201.927 42.72 202.151 42.68 202.332 42.68H202.692C203.055 42.68 203.345 42.7893 203.564 43.008C203.783 43.2267 203.892 43.5173 203.892 43.88V45.72C203.892 46.12 203.777 46.4347 203.548 46.664C203.324 46.888 203.012 47 202.612 47H200.972ZM204.611 47V42.76H206.011V44.08H207.571C207.934 44.08 208.224 44.1893 208.443 44.408C208.662 44.6267 208.771 44.9173 208.771 45.28V45.8C208.771 46.1627 208.662 46.4533 208.443 46.672C208.224 46.8907 207.934 47 207.571 47H204.611ZM207.091 46C207.171 46 207.238 45.9733 207.291 45.92C207.344 45.8667 207.371 45.8 207.371 45.72V45.368C207.371 45.288 207.344 45.2213 207.291 45.168C207.238 45.1147 207.171 45.088 207.091 45.088H206.011V46H207.091ZM210.691 47H209.291V42.76H210.691V47ZM214.734 46.28H213.694L212.894 44.84V47H211.494V42.76H212.974L214.214 45L215.454 42.76H216.934V47H215.534V44.84L214.734 46.28ZM218.856 48.44C218.573 48.44 218.227 48.4133 217.816 48.36V47.32H218.536C218.739 47.32 218.869 47.264 218.928 47.152C218.992 47.04 218.981 46.8827 218.896 46.68L217.256 42.76H218.736L219.736 45.48L220.576 42.76H222.056L220.456 47.16C220.301 47.5813 220.101 47.8987 219.856 48.112C219.611 48.3307 219.277 48.44 218.856 48.44Z" fill="white"/>
</svg>
