<?xml version="1.0" encoding="UTF-8"?>
<!DOCTYPE svg PUBLIC "-//W3C//DTD SVG 1.1//EN" "http://www.w3.org/Graphics/SVG/1.1/DTD/svg11.dtd">
<!-- Creator: CorelDRAW X8 -->
<svg xmlns="http://www.w3.org/2000/svg" xml:space="preserve" width="167px" height="100px" version="1.1" style="shape-rendering:geometricPrecision; text-rendering:geometricPrecision; image-rendering:optimizeQuality; fill-rule:evenodd; clip-rule:evenodd"
viewBox="0 0 16700000 10020000"
 xmlns:xlink="http://www.w3.org/1999/xlink">
 <defs>
  <style type="text/css">
   <![CDATA[
    .fil1 {fill:#525050}
    .fil0 {fill:#9B363D}
    .fil4 {fill:#9D383D}
    .fil5 {fill:#E39A03}
    .fil3 {fill:#E49B03}
    .fil2 {fill:#D1CFCF;fill-rule:nonzero}
   ]]>
  </style>
 </defs>
 <g id="Слой_x0020_1">
  <metadata id="CorelCorpID_0Corel-Layer"/>
  <rect class="fil0" transform="matrix(-0.218326 0.202504 0.69 0.710268 1.15115E+07 607545)" width="5372958" height="406511" rx="70641" ry="70641"/>
  <rect class="fil1" transform="matrix(0.7701 0.769372 -0.769372 0.7701 8.98021E+06 535641)" width="5372958" height="406511" rx="200400" ry="200400"/>
  <rect class="fil1" transform="matrix(-0.787255 0.769372 0.786511 0.7701 8.98003E+06 539347)" width="5372958" height="406511" rx="200400" ry="200400"/>
  <rect class="fil1" transform="matrix(0.00510176 0.392188 1.22198 0.0181348 6.43692E+06 2.67655E+06)" width="5372958" height="406511" rx="42117" ry="42117"/>
  <rect class="fil1" transform="matrix(-0.196137 0.00323501 -0.0184586 0.982206 7.20398E+06 2.519E+06)" width="5372958" height="406511" rx="121810" ry="121810"/>
  <rect class="fil1" transform="matrix(0.00490758 0.56102 1.17547 0.0259417 1.11625E+07 3.26066E+06)" width="5372958" height="406511" rx="52972" ry="52972"/>
  <rect class="fil0" transform="matrix(0.530864 0.502566 -0.74812 0.772038 1.15632E+07 532717)" width="5372958" height="406511" rx="200400" ry="200400"/>
  <polygon class="fil2" points="2018395,8132566 1674108,8132566 1674108,7197032 1272406,7197032 1272406,6963165 2420064,6963165 2420064,7197032 2018395,7197032 "/>
  <polygon id="1" class="fil2" points="3615550,8132566 2553998,8132566 2553998,6963165 3615550,6963165 3615550,7197032 2898285,7197032 2898285,7422582 3462545,7422582 3462545,7656449 2898285,7656449 2898285,7898699 3615550,7898699 "/>
  <path id="2" class="fil2" d="M3768589 6963165l803370 0c133867,0 231128,26453 291716,79359 60554,52905 90848,137808 90848,254741l0 167067c0,116934 -30294,201870 -90848,254775 -60588,52906 -157849,79359 -291716,79359l-459083 0 0 334100 -344287 0 0 -1169401zm841646 334100c0,-66800 -38276,-100233 -114795,-100233l-382564 0 0 367534 382564 0c76519,0 114795,-33400 114795,-100234l0 -167067z"/>
  <polygon id="3" class="fil2" points="6274324,7481032 6006522,7898699 5738721,7898699 5470953,7481032 5470953,8132566 5126666,8132566 5126666,6963165 5490058,6963165 5872655,7581266 6255185,6963165 6618611,6963165 6618611,8132566 6274324,8132566 "/>
  <path id="4" class="fil2" d="M7708887 7280565c0,-66800 -38276,-100233 -114762,-100233l-325183 0c-76519,0 -114762,33433 -114762,100233l0 534601c0,66800 38243,100233 114762,100233l325183 0c76486,0 114762,-33433 114762,-100233l0 -534601zm344287 534601c0,116933 -30260,201836 -90848,254742 -60587,52905 -157781,79358 -291715,79358l-478188 0c-133867,0 -231128,-26453 -291716,-79358 -60521,-52906 -90814,-137809 -90814,-254742l0 -534601c0,-116933 30293,-201836 90814,-254741 60588,-52906 157849,-79359 291716,-79359l478188 0c133934,0 231128,26453 291715,79359 60588,52905 90848,137808 90848,254741l0 534601z"/>
  <polygon id="5" class="fil2" points="8187075,7664799 8187075,7430932 8971273,7430932 8971273,7664799 "/>
  <path id="6" class="fil2" d="M9946787 7539516l372978 593050 -363425 0 -296425 -476117 -172177 0 0 476117 -344288 0 0 -1169401 344288 0 0 459417 172177 0 191248 -317400c28056,-46793 62825,-84936 104241,-114462 41450,-29492 95959,-44255 163560,-44255 21677,0 42719,835 63093,2505 20441,1670 38911,3607 55511,5845 19104,3340 36973,6112 53506,8350l0 225517 -76452 0c-19172,0 -36373,5311 -51670,15898 -15297,10555 -26787,21978 -34435,34235l-181730 300701z"/>
  <path id="7" class="fil2" d="M10434527 6963165l803371 0c133867,0 231128,26453 291715,79359 60554,52905 90848,137808 90848,254741l0 167067c0,116934 -30294,201870 -90848,254775 -60587,52906 -157848,79359 -291715,79359l-459050 0 0 334100 -344321 0 0 -1169401zm841647 334100c0,-66800 -38276,-100233 -114796,-100233l-382530 0 0 367534 382530 0c76520,0 114796,-33400 114796,-100234l0 -167067z"/>
  <path id="8" class="fil2" d="M12136892 7364099l439945 0c133900,0 231128,26453 291715,79358 60521,52906 90815,137809 90815,254775l0 100234c0,116933 -30294,201836 -90815,254742 -60587,52905 -157815,79358 -291715,79358l-784232 0 0 -1169401 344287 0 0 400934zm1319834 768467l-344320 0 0 -1169401 344320 0 0 1169401zm-841646 -434334c0,-66833 -38243,-100233 -114763,-100233l-363425 0 0 300700 363425 0c76520,0 114763,-33433 114763,-100233l0 -100234z"/>
  <polygon id="9" class="fil2" points="14833909,7481032 14566107,7898699 14298306,7898699 14030538,7481032 14030538,8132566 13686251,8132566 13686251,6963165 14049677,6963165 14432240,7581266 14814770,6963165 15178196,6963165 15178196,8132566 14833909,8132566 "/>
  <g id="_787497200">
   <path class="fil3" d="M9012222 1743113c265530,363692 438609,745287 397593,1197490 -42618,469871 -299564,657612 -502436,1054571 -187307,366565 -320773,851734 -48229,1206776 110687,144254 277554,282363 461821,338876 184636,56647 587907,-109418 460553,-25651 -422744,278055 -857411,54509 -1128753,-274448 -298930,-362356 -368736,-780858 -220540,-1219467 122912,-363760 396491,-646758 549363,-1017498 183299,-444621 202872,-812956 30628,-1260649z"/>
   <path class="fil0" d="M9145688 4832947c-140113,-72946 -101603,-506111 -62992,-645389 53340,-192317 142618,-373913 254708,-543418 240981,-364460 403506,-829722 204341,-1238973 110688,46059 335570,455743 378456,572176 97728,265430 111456,493552 -8784,756977 -106613,233667 -290848,311121 -452370,491982 -81429,91182 -144422,157849 -207347,263493 -86773,145657 -71677,285503 -106012,343152z"/>
   <path class="fil4" d="M8938007 5692095c-417199,-87241 -833831,-608815 -901967,-993583 -74215,-418903 144422,-1025714 530793,-1277083 -79626,184836 -211723,296158 -293620,545623 -149164,454540 -102972,935801 208283,1319567 156078,192417 368435,301702 456511,405476z"/>
  </g>
  <g id="_785893184">
   <path class="fil0" d="M11830981 5741026l0 452737c0,32465 23514,32999 49432,43019 92819,35838 -30160,30928 190848,30928 28056,0 31363,-16032 36940,-36973 70808,0 141750,-368 212558,66 48029,301 65731,3340 101970,-8951 32832,-11122 46593,-18871 92017,-18871l2356237 0c1636,72278 20941,55478 175550,55478 34602,0 10387,-21944 64662,-37008 78290,-21743 41383,-27688 73948,-27688 82999,0 445189,-11122 494621,13627 82164,41082 12525,98296 13460,235737 534,73914 133,147962 133,221876 -52070,13928 -36973,35171 -36973,166332 0,35237 15831,4910 35905,65732 9519,28957 -9419,4709 12324,33901 9085,12191 17068,20507 34937,20507l415830 0c40414,0 45657,-51970 49298,-61556 802,-2171 1603,-4709 2505,-6747 902,-1970 2104,-4342 3106,-6145 10521,-19038 -1670,3674 12158,-15565 20741,-28857 15631,-4509 16867,-57080 467,-21243 1369,-64730 -167,-84569 -6981,-90648 -37976,-6079 -38210,-118871 -100,-55444 368,-111556 768,-167067 167,-23647 1804,-48597 -2137,-71776 -3741,-21877 -16233,-40915 -21543,-61657 -22211,-87007 5310,-207347 -122812,-366865 -50868,-63360 -95424,-102872 -170808,-143386 -85704,-46126 -137107,-58751 -264928,-58450l-397995 668c-54175,-101 -40447,-1336 -124782,-41550l-21276 -15698c-13928,-10655 -2705,-17335 -28891,-17335 -177488,0 -175550,-15330 -175550,73948l-2337733 0c-70908,0 -87575,-20942 -133433,-32932 -55611,-14496 -187942,534 -255343,-3340 -84402,-4843 -8384,-39245 -128189,-38143 -31029,300 -61857,467 -92886,467 -16666,62425 -39545,15665 -76853,52505 -11122,10989 -15565,11623 -15565,30695z"/>
   <path class="fil5" d="M15656384 8282064c27354,7282 14996,3708 36973,18437 0,71142 -8249,222678 2171,284301 4042,24048 79826,168470 -76085,168470 -86873,0 -402837,15197 -461354,-9887l-77989 -32865c-17502,-12960 -3841,-21944 -33567,-21944 -154609,0 -173914,-16767 -175550,55444l-2346985 0c-113927,0 -52171,-27956 -240246,-27722 -42485,100 -88310,1870 -130227,868 -123446,-2839 45558,-37809 -193185,-37809 -60254,0 -23380,22512 -81797,38310 -11189,3006 -24716,4710 -38310,7883 -20541,88176 -9252,354574 -9252,462022 0,19071 4443,19739 15598,30594 32632,31663 13093,-5110 61590,30862 40781,30260 -5578,21676 153840,21676 42151,0 11022,-33567 82465,-37608 59919,-3440 202638,6212 248062,-1436 34869,-5845 57982,-25618 103740,-25618l2374707 0c0,80394 8717,64662 175550,64662 31429,0 16032,-17401 58383,-34034 69739,-27388 65932,-31496 135437,-30862 260520,2338 531695,28357 703939,-99933 154141,-114829 207414,-224748 230025,-426083 5545,-49265 23380,-65064 27121,-111456 6246,-78390 134,-186205 134,-267835 21977,-14729 9619,-11155 36940,-18437l0 -166332c-42485,-28456 -23380,-6346 -37742,-45424 -33,-33 -3741,-46993 -45390,-46993l-415830 0c-41450,0 -42084,47628 -52338,67768 -17535,34402 -3374,-1202 -20341,25852 -21276,33968 -10487,114996 -10487,165129z"/>
  </g>
  <g id="_787627232">
   <path class="fil0" d="M6435879 5063507l0 138276c0,42050 33534,10988 37575,82231l-3907 248629c2571,54776 88476,176085 -98163,176085l-405576 0c-27789,0 -8517,-11423 -49499,-24248 -137441,-43120 2672,-40247 -227053,-40247 -32799,0 -36106,21810 -36874,55277l-2885159 0c-363458,0 -696757,9218 -1060015,9218 0,-89712 -28925,-56446 -126887,-67435 -102538,-11456 -117635,69239 -250834,67635 -319571,-3874 -512490,-32064 -712689,116934 -55778,41516 -118804,115831 -150233,181596 -47996,100333 -63193,225383 -84168,330693 -14362,72144 -936,291716 -22779,327420 -48263,78791 -25852,55144 -25852,186138 48497,32465 24583,3608 39412,52772 6146,20341 11757,48631 43554,48631 125350,0 204040,3774 325216,-6747 82431,-7214 -25518,25852 135670,-11657 0,-123680 31664,-668 37976,-156278 6547,-162525 -29492,-83734 -31897,-143320 -3106,-76218 12759,-235102 -4576,-291882 -60654,-199265 -3540,-155177 523879,-155177l91182 37943c13761,10554 2372,17368 28691,17368 162558,0 182698,17501 184335,-55311 502068,0 992414,-9218 1502465,-9218 250133,0 488041,-9218 746657,-9218l1696052 0c0,36406 2939,37408 9219,64562 67267,15631 85604,9185 165931,9185 34736,0 8918,-16299 71442,-39145 70140,-25685 35905,-29325 85204,-34636 21075,-2304 60020,-67 82999,34 94589,267 387807,7915 467900,-11390 195491,-47161 345457,-202103 391582,-401167 9920,-42652 10020,-87508 17468,-139278 8050,-56279 27388,-23647 26620,-139278 -267,-40080 -7448,-202772 7248,-232364 27187,-54542 29459,18537 29926,-127788 301,-97528 -3073,-22579 -40046,-125918 -6146,-17101 -16066,-39546 -43420,-39546l-396392 0c-73914,0 -37441,35070 -68904,78624 -11556,15931 -23280,-1136 -23280,31997z"/>
   <path class="fil3" d="M333766 8114563l0 165898c27255,7281 14930,3741 36907,18470 0,83066 -4108,176620 -300,258349 2304,49366 19205,66199 25517,103540 28424,168336 18504,226219 156179,378422 38443,42452 26285,26620 75216,63060 249331,185670 635235,46092 802602,119137l41383 13928c67368,31096 -45224,31396 189879,31396 41750,0 36874,-40881 36874,-64529l2368928 0c80461,0 9619,27789 221208,27656 39512,0 81596,-1604 120608,-769 83399,1771 47795,37642 91382,37642l119873 0c34736,0 5444,-13894 56846,-35337 34,0 53741,-6346 53741,-47595 0,-107214 11289,-372978 -9185,-460920l-45591 -9719c-73914,-24449 38009,-36340 -166432,-36340 -72211,0 -14596,32766 -91416,37642 -63894,4042 -211021,-9318 -261622,5678 -43554,12859 -61256,21209 -117067,21209l-2341273 0c-1637,-72077 -20976,-55344 -175150,-55344 -40982,0 19172,4977 -86439,42652 -38978,13895 -22345,21877 -61055,21877l-424013 0c-151503,0 -82665,-136272 -77488,-160420 11723,-54342 3740,-224114 3740,-291215 21911,-14729 9586,-11189 36874,-18470 0,-103607 19873,-118169 -23347,-179425 -66031,-93687 103039,-78657 -474413,-78657 -22178,0 -12559,869 -25551,11323 -43487,34970 17969,30394 -57415,80861z"/>
  </g>
 </g>
</svg>
